<?xml version="1.0" standalone="no"?>
<!DOCTYPE svg PUBLIC "-//W3C//DTD SVG 20010904//EN"
 "http://www.w3.org/TR/2001/REC-SVG-20010904/DTD/svg10.dtd">
<svg version="1.0" xmlns="http://www.w3.org/2000/svg"
 width="560.000000pt" height="560.000000pt" viewBox="0 0 560.000000 560.000000"
 preserveAspectRatio="xMidYMid meet">
<metadata>
Created by potrace 1.11, written by Peter Selinger 2001-2013
</metadata>
<g transform="translate(0.000000,560.000000) scale(0.100000,-0.100000)"
fill="#000000" stroke="none">
<path d="M0 2800 l0 -2800 2800 0 2800 0 0 2800 0 2800 -2800 0 -2800 0 0
-2800z m3070 1565 c41 -8 137 -36 212 -61 l138 -47 92 42 c71 32 103 42 133
39 l40 -3 42 -420 c23 -231 42 -430 42 -442 1 -22 -3 -23 -68 -23 l-69 0 -18
53 c-43 133 -136 303 -218 401 -96 114 -271 227 -407 262 -76 20 -239 22 -322
5 -132 -28 -257 -100 -317 -183 -72 -99 -94 -280 -51 -409 70 -212 261 -364
708 -566 266 -119 388 -188 507 -287 71 -58 164 -179 201 -261 56 -122 70
-192 69 -360 -1 -133 -4 -160 -28 -240 -37 -123 -77 -202 -143 -285 -77 -96
-160 -162 -278 -221 -147 -72 -265 -100 -455 -106 -230 -8 -424 31 -619 124
l-74 35 -101 -41 c-92 -38 -109 -41 -188 -41 l-88 0 0 455 0 455 84 0 84 0 12
-52 c33 -138 121 -331 194 -426 119 -155 273 -256 453 -298 90 -21 288 -20
368 1 101 27 182 70 249 135 107 103 150 210 149 370 -1 175 -47 291 -162 413
-113 119 -271 215 -536 327 -303 128 -548 287 -661 428 -101 126 -148 267
-148 442 0 205 63 358 215 524 86 95 248 195 384 239 148 48 403 58 575 22z"/>
</g>
</svg>
